<svg xmlns="http://www.w3.org/2000/svg" width="116" height="133"><defs><filter filterUnits="userSpaceOnUse" id="a" x="0" y="0" width="116" height="133"><feOffset in="SourceAlpha" dy="3"/><feGaussianBlur result="blurOut" stdDeviation="1.732"/><feFlood flood-color="#000" result="floodOut"/><feComposite operator="atop" in="floodOut" in2="blurOut"/><feComponentTransfer><feFuncA type="linear" slope=".09"/></feComponentTransfer><feMerge><feMergeNode/><feMergeNode in="SourceGraphic"/></feMerge></filter><filter id="b"><feFlood flood-color="#FFF" flood-opacity="1" result="floodOut"/><feComposite operator="atop" in="floodOut" in2="SourceGraphic" result="compOut"/><feBlend in="compOut" in2="SourceGraphic"/></filter></defs><g filter="url(#a)"><g filter="url(#b)"><path fill-rule="evenodd" fill="#FFF" d="M31.359 119.73c1.29 1.147 2.098 2.787 2.098 4.607 0 1.114-.224 2.658-1.709 2.657v.002H11.775c.125 0-1.403-.53-1.536-1.226-.115-.47.411-.951.411-1.433 0-1.723.138-2.797 1.31-4.419-1.567-.818-2.546-2.546-2.546-4.31V78.702C5.81 77.53 1.999 72.989 1.999 68.265V44.509c0-7.068 5.473-12.966 12.559-13.994a28.698 28.698 0 001.195-6.351c-2.91-1.817-4.843-4.963-4.843-8.523V6.226C10.91 2.794 13.834.8 17.415.8h8.195c3.581 0 6.505 1.994 6.505 5.426v9.415c0 3.56-1.933 6.707-4.844 8.523.157 2.165.566 4.31 1.206 6.389 4.795.766 8.839 3.73 10.957 7.765 2.096-4.098 6.199-7.098 11.064-7.803a28.813 28.813 0 001.195-6.351c-2.911-1.817-4.843-4.963-4.843-8.523V6.226C46.85 2.794 49.774.8 53.354.8h8.195c3.581 0 6.991 1.994 6.991 5.426v9.415c0 3.56-2.42 6.707-5.33 8.523.157 2.165.567 4.31 1.207 6.389 4.83.772 8.896 3.774 11.002 7.854 2.082-4.143 6.209-7.181 11.108-7.892a28.755 28.755 0 001.195-6.351c-2.909-1.817-4.843-4.963-4.843-8.523V6.226C82.879 2.794 85.804.8 89.383.8h8.196c3.58 0 7.251 1.994 7.251 5.426v9.415c0 3.56-2.679 6.707-5.59 8.523.157 2.165.567 4.31 1.207 6.389 7.096 1.135 12.548 7.082 12.548 14.195v23.517c0 4.724-3.083 9.255-7.416 10.437v36.906c0 1.648-.851 3.18-2.251 4.122 1.29 1.147 2.098 2.787 2.098 4.607 0 1.114-.224 2.658-1.71 2.657v.002H83.743c-.765 0-1.402-.53-1.535-1.226.712-.47.122-.951.122-1.433 0-1.723.428-2.797 1.599-4.419-1.568-.818-2.546-2.546-2.546-4.31V78.702c-2.511-.956-4.602-2.723-5.917-4.959-1.314 2.236-2.856 4.003-5.916 4.959v36.906c0 1.648-.851 3.18-2.252 4.122 1.29 1.147 2.099 2.787 2.099 4.607 0 1.114-.225 2.658-1.71 2.657v.002H47.714c-.767 0-1.402-.53-1.536-1.226.452-.47.222-.951.222-1.433 0-1.723.327-2.797 1.5-4.419-1.568-.818-2.547-2.546-2.547-4.31V78.702c-2.483-.944-4.554-2.502-5.871-4.883-1.317 2.371-2.552 3.938-5.871 4.883v36.906c0 1.648-.851 3.18-2.252 4.122zM86.1 7.847c2.14-1.392 3.549-1.513 5.833-.724 2.79 1.747 6.038 1.999 9.029 2.068V6.226c0-1.781-1.525-3.242-3.383-3.242h-8.196c-1.857 0-3.283 1.461-3.283 3.242v1.621zm14.862 4.316c-3.532-.058-7.353-1.294-10.648-2.431-1.999-.312-3.168 1.257-4.214 2.258v3.651c0 3.941 3.27 7.17 7.382 7.17 4.11 0 7.48-3.229 7.48-7.17v-3.478zM90.729 25.454a31.542 31.542 0 01-.939 4.902h7.382a31.542 31.542 0 01-.939-4.902c-1.794.465-3.71.465-5.504 0zm-9.346 49.929V44.888c0-1.969 3.122-1.969 3.122 0v22.317h17.952V44.888c0-1.969 3.122-1.969 3.122 0v30.495c2.561-1.43 4.293-4.09 4.293-7.118V44.748c0-6.267-5.353-11.399-11.891-11.399h-1.607l1.449 18.532a1.76 1.76 0 01-.253 1.078l-3.172 4.991c-.455.747-.858.768-1.818.027l-3.187-5.018a1.754 1.754 0 01-.254-1.078l1.449-18.532h-1.855c-6.401 0-10.833 5.024-10.833 11.16v23.756c0 3.028.922 5.688 3.483 7.118zm10.537 42.263V77.437c0-1.968 3.5-1.968 3.5 0v40.209h4.91c.588 0 1.12-.227 1.501-.116.404-.864.626-1.376.626-1.922v-45.41H84.505v45.41c0 1.116.961 2.038 2.127 2.038h5.288zm-6.746 6.654H92.1c-.501-3.32-6.515-3.32-6.926 0zm10.276 0h6.837c-.412-3.32-6.426-3.32-6.837 0zM49.971 7.847c2.024-1.392 3.649-1.513 5.932-.724 2.791 1.747 6.038 1.999 9.028 2.068V6.226c0-1.781-1.524-3.242-3.382-3.242h-8.195c-1.858 0-3.383 1.461-3.383 3.242v1.621zm14.96 4.316c-3.531-.058-7.353-1.294-10.647-2.431-1.998-.312-3.167 1.257-4.313 2.258v3.651c0 3.941 3.369 7.17 7.48 7.17 4.112 0 7.48-3.229 7.48-7.17v-3.478zM54.699 25.454a31.539 31.539 0 01-.938 4.902h7.38a31.654 31.654 0 01-.937-4.902 11.036 11.036 0 01-5.505 0zm-9.346 49.929V44.888c0-1.969 3.122-1.969 3.122 0v22.317h17.953V44.888c0-1.969 3.122-1.969 3.122 0v30.495c2.56-1.43 4.293-4.09 4.293-7.118V44.748c0-6.267-5.354-11.399-11.891-11.399h-1.607l1.449 18.532c.028.374-.053.763-.254 1.078l-3.173 4.991c-.454.747-1.127.768-1.816.027l-3.188-5.018c-.186-.292.407-.674-.255-1.078l1.451-18.532h-1.857c-6.4 0-11.102 5.024-11.102 11.16v23.756c0 3.028 1.193 5.688 3.753 7.118zm10.537 42.263V77.437c0-1.968 3.24-1.968 3.24 0v40.209h5.171c.587 0 1.119-.227 1.501-.116.402-.864.626-1.376.626-1.922v-45.41H48.475v45.41c0 1.116.962 2.038 2.126 2.038h5.289zm-6.747 6.654h6.837c-.411-3.32-6.426-3.32-6.837 0zm10.278 0h6.835c-.41-3.32-6.424-3.32-6.835 0zM14.32 7.847c2.24-1.392 3.361-1.513 5.644-.724 2.791 1.747 6.236 1.999 9.028 2.068V6.226c0-1.781-1.524-3.242-3.382-3.242h-8.195c-1.858 0-3.095 1.461-3.095 3.242v1.621zm14.672 4.316c-3.531-.058-7.353-1.294-10.647-2.431-1.999-.312-3.167 1.257-4.025 2.258v3.651c0 3.941 3.081 7.17 7.192 7.17h.001c4.111 0 7.479-3.229 7.479-7.17v-3.478zM18.76 25.454a31.775 31.775 0 01-.938 4.902h7.38a31.654 31.654 0 01-.937-4.902 11.036 11.036 0 01-5.505 0zM9.414 75.383V44.888c0-1.969 3.122-1.969 3.122 0v22.317h17.952V44.888c0-1.969 3.123-1.969 3.123 0v30.495c2.561-1.43 4.293-4.09 4.293-7.118V44.748c0-6.267-5.354-11.399-11.784-11.399h-1.714l1.449 18.532c.029.374-.053.763-.254 1.078l-3.172 4.991c-.455.747-.589.768-1.817.027l-3.188-5.018a1.768 1.768 0 01-.255-1.078l1.45-18.532h-1.855c-6.401 0-11.643 5.024-11.643 11.16v23.756c0 3.028 1.732 5.688 4.293 7.118zm10.537 42.263V77.437c0-1.968 3.789-1.968 3.789 0v40.209h4.622c.587 0 1.118-.227 1.501-.116.402-.864.625-1.376.625-1.922v-45.41H12.536v45.41c0 1.116.962 2.038 2.126 2.038h5.289zm-6.747 6.654H20.4c-.771-3.32-6.784-3.32-7.196 0zm10.278 0h6.836c-.412-3.32-6.425-3.32-6.836 0z"/></g></g></svg>