<svg xmlns="http://www.w3.org/2000/svg" width="108" height="109"><defs><filter filterUnits="userSpaceOnUse" id="a" x="0" y="0" width="108" height="109"><feOffset in="SourceAlpha" dy="3"/><feGaussianBlur result="blurOut" stdDeviation="1.732"/><feFlood flood-color="#000" result="floodOut"/><feComposite operator="atop" in="floodOut" in2="blurOut"/><feComponentTransfer><feFuncA type="linear" slope=".09"/></feComponentTransfer><feMerge><feMergeNode/><feMergeNode in="SourceGraphic"/></feMerge></filter><filter id="b"><feFlood flood-color="#FFF" flood-opacity="1" result="floodOut"/><feComposite operator="atop" in="floodOut" in2="SourceGraphic" result="compOut"/><feBlend in="compOut" in2="SourceGraphic"/></filter></defs><g filter="url(#a)"><g filter="url(#b)"><path fill-rule="evenodd" fill="#FFF" d="M3.37 43.216c2.159-19.588 11.381-25.452 13.748-25.702 2.368-.249 4.611-1.123 9.782 3.244 3.552 4.367 8.378 8.862 9.998 10.858 1.62 1.996 2.526 7.358.906 9.354-1.62 1.995-6.854 6.613-8.598 8.359-1.745 2.421-1.619 3.868-.997 5.116 2.37 4.745 17.476 20.024 22.165 22.442 1.238.639 3.356.79 5.121-.935 1.766-1.726 6.44-6.532 8.453-8.508 2.012-1.597 7.356-.626 9.33 1.02 1.975 1.645 6.405 6.532 10.714 10.952 4.309 4.418 3.408 7.274 3.131 9.021-.277 2.367-6.245 11.528-25.839 13.787C37.214 104.998.11 67.181 3.37 43.216zm72.5 16.665c-5.154 0-9.306-.94-13.049-2.626-.392.525-.391-.362-1.161-.555-.838-.422-3.164 1.722-6.294 2.578-3.806 1.039-8.505.832-9.389.125-.842-.673 2.709-2.829 4.937-4.563 1.535-2.471 2.082-4.705 1.595-5.265-.222-.256.161-.015-.656-.784-4.172-5.146-6.673-10.961-6.673-18.854C45.18 13.4 58.57.5 75.87.5c15.735 0 29.124 12.9 29.124 29.437S91.605 59.881 75.87 59.881zm-4.272-20.524v8.203c0 .135.115.25.249.25h6.48a.25.25 0 00.249-.25v-8.265c0-1.085 1.883-1.535 2.915-1.622l7.095 4.101a.254.254 0 00.341-.091l3.24-5.053c.069-.686.028-.838.583-.907l-7.824-4.133c-1.101-.636-.981-2.74.052-3.337l7.762-4.102c-.549.689-.508-.224-.575-.34l-3.24-5.619c-.068.528-.22.118-.34-.092l-7.149 4.133c-1.216.703-2.86-.799-2.86-1.898v-8.021c0-.129-.119.336-.249.336h-6.48c-.133 0-.249-.469-.249-.336v8.083c0 1.276-2.039 2.31-3.071 1.713l-6.939-4.009c-.112.259-.275.689-.34.091L58.9 23.811c-.959.115-.916 1.029.09.34l6.92 4.042c.285.638.76 2.924-.55 3.52l-6.38 4.01c-.994.065-1.038.228-.28.917l2.547 5.043a.253.253 0 00.34.091l6.992-4.042c1.003-.579 3.019.668 3.019 1.625zm9.969 1.818v6.385a3.254 3.254 0 01-3.24 3.244h-6.48c-1.217 0-3.24-1.457-3.24-3.244v-6.386l-4.777 3.193c-2.292.894-4.281.36-5.173-1.187l-3.24-5.618c-.89-1.372.203-3.352 1.186-4.431l5.524-3.194-5.523-3.193c-1.004-.893-2.078-2.885-1.186-4.431l3.24-5.619c.89-1.542 2.885-2.078 5.182-1.187l4.767 3.193v-6.386c0-1.785 2.033-2.604 3.24-2.604h6.48c1.78 0 3.24.823 3.24 2.604v6.385l6.333-3.192c.73-.89 2.725-.357 3.616 1.187l3.239 5.62a3.25 3.25 0 01-1.185 4.43l-5.1 3.193 5.101 3.194c1.54 1.069 2.076 3.039 1.185 4.431l-3.24 5.618c-.892 1.548-2.879 2.081-3.606 1.187l-6.343-3.192zm-64.12-16.806c1.414-.569 3.482.791 2.068 2.152-7.289 7.14-9.933 18.178-6.625 27.989-.302 1.9-3.187 2.66-3.686.76-2.744-10.761.166-23.124 8.243-30.901z"/></g></g></svg>