<svg xmlns="http://www.w3.org/2000/svg" width="143" height="134"><defs><filter filterUnits="userSpaceOnUse" id="a" x="0" y="0" width="143" height="134"><feOffset in="SourceAlpha" dy="3"/><feGaussianBlur result="blurOut" stdDeviation="1.732"/><feFlood flood-color="#000" result="floodOut"/><feComposite operator="atop" in="floodOut" in2="blurOut"/><feComponentTransfer><feFuncA type="linear" slope=".09"/></feComponentTransfer><feMerge><feMergeNode/><feMergeNode in="SourceGraphic"/></feMerge></filter><filter id="b"><feFlood flood-color="#FFF" flood-opacity="1" result="floodOut"/><feComposite operator="atop" in="floodOut" in2="SourceGraphic" result="compOut"/><feBlend in="compOut" in2="SourceGraphic"/></filter></defs><g filter="url(#a)"><g filter="url(#b)"><path fill-rule="evenodd" fill="#FFF" d="M64.175 7.394c8.029-2.748 10.975-2.074 15.593.36 4.752 2.722 6.473 3.503 6.473 3.503s2.937-4.928 5.079-3.428c1.565 1.5-1.798 5.062-1.798 5.062s2.162 1.75 7.624 2.594c5.461.844 10.289 2.657 15.54 5.835 5.253 3.178 12.582 5.126 18.087 6.924 5.504 2.176 9.226 4.401 9.104 7.572-.54 13.971-2.174 18.297-11.014 29.152-2.007 2.463-6.527 1.973-11.763-.296-5.417-2.268-12.215-5.182-18.265-6.689-6.05-1.065-10.878-2.878-15.54-5.835-4.665-2.957-7.447-2.298-7.447-2.298s.332 4.122-2.215 4.031c-2.385-.091-1.332-5.726-1.332-5.726s-1.811-.545-7.184-1.625c-.613-.123-.621-1.34-1.801-1.88-.954-.436-3.142-.118-3.383-.863-.514-1.59 1.957-3.995 1.22-4.456-1.836-1.146-2.965.403-5.551-.764-.695-.314-2.002-1.255-2.441-2.02-4.643-8.09 2.287-26.165 11.014-29.153zM25.852 39.652c2.639-.022 2.673 3.977.035 4l-16.728.153c-1.721.015-2.633-1.987-1.563-3.275l8.349-10.805L3.314 17.179C2 15.873 3.24 13.661 4.842 13.76v-.003l18.876 1.012 1.12-12.861C24.933.807 25.907.9 27.12.87c.452-.735 1.46-.462 1.269-.062l8.936 9.457c1.807 1.912-1.109 4.653-2.918 3.235l-5.954-6.796-.891 10.239c-.043 1.737-.99 1.997-2.121 1.935L9.879 18.44l10.431 9.688-.03.003c.452.699.544 1.827-.077 2.633l-6.956 9.004 12.605-.116zm1.76 13.837c-2.43 8.109-1.93 10.894.99 16.111 2.92 4.03 3.771 5.714 3.771 5.714s-4.819 3.124-3.242 4.908c1.579 2.578 5.013-1.707 5.013-1.707s1.841 2.083 3.366 7.885c.608 5.01 2.62 9.746 6.016 14.848 3.398 5.103 5.646 12.326 7.671 17.736 2.024 5.409 4.784 9.012 7.956 8.762 13.983-1.101 18.252-2.903 28.777-12.147 2.387-2.097 1.713-6.399-.775-11.793-2.489-5.215-5.875-11.85-7.438-17.833-1.312-5.983-3.323-10.719-6.475-15.245-2.342-4.526-3.372-7.293-3.372-7.293s4.907-.028 4.719-2.075c-.187-2.697-5.793-1.42-5.793-1.42s-.62-1.783-1.919-7.09c-.148-.606-1.368-.566-1.957-1.718-.54-.432-2.73-.679-4.71-1.451-1.247-.486-4.925-.931-5.41-2.46-1.942-.767-.685-1.26-1.929-1.905-1.24-.641-1.374-1.891-1.658-2.986-.256-.991-1.401-.537-2.822-.721-.458-.059-.257-1.367-.964-1.266-7.707 1.201-17.934 6.874-19.815 13.146zm35.224 67.168c-2.905 1.122-3.517 2.813-7.844-7.397-1.622-3.988-1.479-4.024 2.438-5.45a3689.952 3689.952 0 0117.94-7.596c3.151-1.535 3.276-1.61 4.852 2.163 4.208 10.071 3.668 10.023.038 10.926-1.811.831-15.565 6.636-17.424 7.354zM44.274 83.228c-3.612 1.524-3.012 2.226-4.12-1.12-.226-.686-1.729-5.536-2.51-8.48-.809-3.047-.648-2.265 2.644-3.803 6.847-3.199 11.857-5.319 19.047-8.039 3.398-1.286 2.947-1.945 4.578.753 1.578 2.609 4.027 7.06 4.363 7.7 1.639 3.121 1.551 2.203-2.061 3.728-7.314 3.563-14.628 6.174-21.941 9.261zm-15.434-29.1c-.432 2.362-.113 3.112 1.607 2.658 1.72-.453 1.856-1.259 2.06-1.996.204-2.16 1.379-4.222 1.141-4.939-.148-1.949-4.516 2.679-4.808 4.277zM132.92 39.77c1.007-2.939 2.253-3.6-7.965-7.505-3.829-1.463-3.005-1.321-5.147 2.253-1.818 7.892-3.945 10.794-6.887 18.229-1.398 3.532-1.469 3.659 2.377 5.077 10.264 3.785 10.322 2.468 10.952-.402.85-1.838 6.025-15.771 6.67-17.652zM94.654 22.791c1.716-3.659 2.111-3.09-1.288-4.058-.696-.198-5.618-1.5-8.601-2.159-3.086-.682-2.296-.374-3.165 2.787-3.471 6.949-5.394 12.025-7.83 19.296-1.152 4.293-1.831 3.014.941 4.53 2.677 1.467 7.237 3.726 7.892 4.035 3.195 1.507 2.27 1.456 3.653-2.032 3.304-7.581 5.599-14.99 8.398-22.399zm-40.183 13.31c1.418 2.309 2.183 2.226 3.04.672.856-1.555.364-2.209-.548-3.355-.453-1.146-1.6-3.118-2.284-3.738-1.86-.88-1.168 5.108-.208 6.421zm10.394-27.51c2.349.069 3.114-.238 2.729 2.259-.385.966-1.188 1.134-2.631 1.396-1.444.262-3.464 1.514-4.192 1.308-1.98-.562 2.503-4.608 4.094-4.963z"/></g></g></svg>