<svg xmlns="http://www.w3.org/2000/svg" width="35" height="40"><path fill-rule="evenodd" fill="#FFCB00" d="M15.86 27.934V14.638h4.053v8.499h3.894v4.797H15.86zM12.776 4.79V.6h9.447v4.19h-2.31v.606c8.635 1.184 15.086 8.546 15.086 17.223 0 9.602-7.835 18.081-17.5 18.081C7.835 40.7 0 32.221 0 22.619 0 13.942 6.452 6.58 15.86 5.396V4.79h-3.084zm4.723 30.421c7 0 12.673-5.637 12.673-12.592 0-6.954-5.673-12.339-12.673-12.339-6.999 0-12.672 5.385-12.672 12.339 0 6.955 5.673 12.592 12.672 12.592z"/></svg>