<svg xmlns="http://www.w3.org/2000/svg" width="42" height="39"><path fill-rule="evenodd" stroke="#FFCB00" fill="#FFCB00" d="M4.202 22.328V8.883c0-2.672 3.568-4.568 5.905-4.568h20.572c2.6 0 4.621 1.62 5.463 3.851a1.033 1.033 0 01-.915 1.491L11.4 9.661c-1.278 0-.42 1.659 0 1.659h23.453c1.594 0 2.905 1.032 2.905 2.637v18.526c0 2.427-1.309 2.926-2.905 2.926H7.107c-1.598 0-2.905-.499-2.905-2.926v-.845c-.013-.429.24-.838.66-1 .691-.266 1.417.27 1.393 1l.001.845c0 .41.401.857.851.857h27.746c.467 0 .85-.385.85-.857V13.957a.852.852 0 00-.85-.857H11.4c-3.989 0-4-5.508 0-5.508h21.918c-.711-.78-1.566-1.208-2.639-1.208H10.107c-1.183 0-3.851 1.112-3.851 2.499v13.445c0 .416.244.809-.66.966-.677.261-1.395.156-1.394-.966h0zm23.78 1.848a2.58 2.58 0 011.472-3.316c1.31-.505 2.791.38 3.292 1.482a2.581 2.581 0 01-1.471 3.315 2.55 2.55 0 01-3.293-1.481h0z"/></svg>