<svg width="45.797" height="47.379" xmlns="http://www.w3.org/2000/svg"><path fill-rule="evenodd" fill="#ffcb00" d="M44.75 23.833v.365c0 .93-.749 1.691-1.665 1.691-1.094 0-1.664-.871-1.664-1.009h-6.247v-.682c0 .93-.749 1.691-1.664 1.691-.916 0-1.26-.761-1.26-1.691v-.365c-1.02-.28-1.452-.603-1.452-1.636v-4.556l2.678-5.751 9.661.26 2.66 5.491v4.556c0 1.033-.431 1.356-1.047 1.636zM32.364 20.35c0 .737.588 1.334 1.314 1.334.725 0 1.313-.597 1.313-1.334 0-.737-.588-1.335-1.313-1.335-.726 0-1.314.598-1.314 1.335zm9.641-6.52H34.59l-1.841 3.811H44.26zm.912 5.185c-.725 0-1.313.598-1.313 1.335s.588 1.334 1.313 1.334c.726 0 1.314-.597 1.314-1.334 0-.737-.588-1.335-1.314-1.335zm-4.614-9.127a50.378 50.378 0 00-2.127-1.745c-.832-.636-.776-1.638-.776-2.764 0-1.923.972-2.889 2.903-2.889s3.497.966 3.497 2.889a3.472 3.472 0 01-1.349 2.748 54.815 54.815 0 00-2.148 1.761zm0-5.852c-.745 0-1.348.601-1.348 1.343 0 .741.604 1.342 1.348 1.342.745 0 1.348-.601 1.348-1.342 0-.742-.603-1.343-1.348-1.343zM23.05 36.462v.608c0 1.551-1.15 2.819-2.774 2.819-1.824 0-2.774-1.451-2.774-3.168H7.091v.349c0 1.551-.871 2.819-2.775 2.819-1.525 0-2.774-1.268-2.774-2.819v-.608C.516 35.996 0 35.46 0 33.735c0-.707.1-7.593 0-7.593l4.26-9.586 16.102.044 4.433 9.542.001 7.593c0 1.725-.72 2.261-1.746 2.727zM2.408 30.656c0 1.229.979 2.225 2.189 2.225 1.703 0 2.188-.996 2.188-2.225 0-1.228-.485-2.223-2.188-2.223-1.21 0-2.189.995-2.189 2.223zM18.476 19.79H6.116l-3.067 6.352h18.494zm1.52 8.643c-1.209 0-1.496.995-1.496 2.223 0 1.229.287 2.225 1.496 2.225s2.188-.996 2.188-2.225c0-1.228-.979-2.223-2.188-2.223zm-7.69-15.213c-1.193-1.016-2.304-1.96-3.546-2.909a5.79 5.79 0 01-2.283-4.606C6.477 2.5 9.087 0 12.306 0c3.218 0 5.828 2.5 5.828 5.705 0 1.862-.882 3.52-1.484 4.58-2.018.973-3.131 1.894-4.344 2.935zm0-9.752a2.241 2.241 0 00-2.247 2.237c0 1.695 1.006 2.705 2.247 2.705 1.241 0 2.246-1.01 2.246-2.705a2.24 2.24 0 00-2.246-2.237z"/><path stroke="#ffcb00" stroke-width="2" stroke-dasharray="1, 4" stroke-linecap="round" fill="none" d="M9.64 39.715s7.32 10.682 20 5c5.251-2.3 6.577-13.079 1-16-8.51-4.687 1-11 1-11"/></svg>