<svg width="34.556" height="32.094" xmlns="http://www.w3.org/2000/svg"><path fill-rule="evenodd" stroke="#ffcb00" fill="#ffcb00" d="M.5 18.513V5.068C.5 2.396 4.068.5 6.405.5h20.572c2.6 0 4.621 1.62 5.463 3.851a1.033 1.033 0 01-.915 1.491l-23.827.004c-1.278 0-.42 1.659 0 1.659h23.453c1.594 0 2.905 1.032 2.905 2.637v18.526c0 2.427-1.309 2.926-2.905 2.926H3.405C1.807 31.594.5 31.095.5 28.668v-.845c-.013-.429.24-.838.66-1 .691-.266 1.417.27 1.393 1l.001.845c0 .41.401.857.851.857h27.746c.467 0 .85-.385.85-.857V10.142a.852.852 0 00-.85-.857H7.698c-3.989 0-4-5.508 0-5.508h21.918c-.71-.78-1.566-1.208-2.639-1.208H6.405c-1.183 0-3.85 1.112-3.85 2.499v13.445c0 .416.243.809-.66.966-.678.261-1.396.156-1.395-.966zm23.78 1.848a2.58 2.58 0 011.472-3.316c1.31-.505 2.791.38 3.292 1.482a2.581 2.581 0 01-1.47 3.315 2.55 2.55 0 01-3.294-1.481z"/></svg>