<svg xmlns="http://www.w3.org/2000/svg" width="156" height="156"><path fill-rule="evenodd" fill="#818181" d="M78.777 29.173H57.505L51.908 1.966c-.072-.352.259-.226.621-1 .718-.212 1.991-.065 2.121.444 3.59 3.388 6.753 5.767 10.127 9.154.782.361 1.73.254 2.414-.322L76.736.66c1.144-.354.811.26 1.524-.47l.29-.04.05-.01.29-.04.05.8-.817-.3.034-.4h.005l.029-.2h.005l.031.2.004.1.03.1.005.1.029.1h.005l.03.1.005.1h.133l.004-.1.03-.1h.006l.029-.1.005-.1.029-.1.005-.1.029-.2h.006l.029.2h.005l.034.4.03.3.004-.8.03.04.005.01.029.04c.48.73.936.115 1.893.47l8.941 9.582c.683.576 1.633.683 2.649.322 3.139-3.387 6.519-5.766 9.892-9.154a2.28 2.28 0 012.121-.444c.362.774.694.648.622 1l-5.597 27.207H78.777zm74.539 12.285c-5.157 7.229-12.614 15.121-20.331 18.85-.005 9.027-.611 17.139-1.688 24.438 7.855-3.755 16.426-9.482 24.702-18.578V46.785c0-7.123-1.826-6.529-2.683-5.327zm-32.632-5.079H35.313c-4.109 0-7.471 3.272-7.471 7.271v19.063c0 72.803 40.355 86.181 50.075 93.157v.115l.081-.057.792.057v-.115c9.01-6.976 49.365-20.354 49.365-93.157V43.65c0-3.999-3.362-7.271-7.471-7.271zM78.79 64.493c1.972.001 6.127-.002 9.52.046 2.108.037 6.584 6.211 7.615 7.311 1.6 2.755 2.69 5.776 2.69 5.776s7.097-.88 9.345-.003c.521.878.012 3.012-1.792 4.517-1.803 1.253-3.066.376-3.066.376 2.083 4.181 4.078 13.235.645 16.665v5.777c0 2.397-2.013 4.357-4.476 4.357h-1.609c-2.463 0-4.477-1.96-4.477-4.357v-3.543c-4.572.09-10.752.129-15.187.144-4.435-.015-10.615-.054-15.186-.144v3.543c0 2.397-2.015 4.357-4.477 4.357h-1.61c-2.462 0-4.477-1.96-4.477-4.357v-5.777c-3.433-3.43-1.437-12.484.647-16.665 0 0-1.263.877-3.067-.376-1.578-1.505-2.312-3.639-.928-4.517 1.385-.877 8.482.003 8.482.003s1.089-3.021 3.328-5.776c.393-1.1 4.868-7.274 7.256-7.311 3.834-.048 7.269-.045 9.951-.046h.873zm17.459 22.412c-2.881 0-4.72 4.445-5.33 5.775-.612.107 2.501.869 5.004.869 2.881 0 4.444-.809 4.38-2.601-.065-1.126-1.173-4.043-4.054-4.043zM77.917 71.656c-3.261.007-7.5.015-8.791.015-2.191 0-5.733 9.466-5.733 9.466l14.524.099v.001h.873v-.001l13.813-.099s-2.993-9.466-5.732-9.466c-1.292 0-5.531-.008-8.081-.015h-.873zm52.516 18.249c-1.849 9.849-4.587 18.295-7.838 25.037 26.643-5.671 33.404-24.822 33.404-42.071v-.396c-8.679 8.644-17.553 13.974-25.566 17.43zM2.681 41.458c5.156 7.229 12.613 15.121 20.439 18.85.05 9.027.502 17.139 1.579 24.438C16.843 80.991 8.274 75.264.2 66.168V46.785c0-7.123 1.622-6.529 2.481-5.327zm57.067 45.447c2.88 0 4.719 4.445 6.032 5.775-.091.107-2.826.869-5.05.869-3.538 0-5.101-.809-5.036-2.601.064-1.126 1.172-4.043 4.054-4.043zm-34.184 3c1.848 9.849 4.587 18.295 7.837 25.037C6.759 109.271.2 90.12.2 72.871v-.396c8.477 8.644 17.351 13.974 25.364 17.43z"/></svg>