<svg 
 xmlns="http://www.w3.org/2000/svg"
 xmlns:xlink="http://www.w3.org/1999/xlink"
 width="108px" height="109px">
<defs>
<filter filterUnits="userSpaceOnUse" id="Filter_0" x="0px" y="0px" width="108px" height="109px"  >
    <feOffset in="SourceAlpha" dx="0" dy="3" />
    <feGaussianBlur result="blurOut" stdDeviation="1.732" />
    <feFlood flood-color="rgb(0, 0, 0)" result="floodOut" />
    <feComposite operator="atop" in="floodOut" in2="blurOut" />
    <feComponentTransfer><feFuncA type="linear" slope="0.09"/></feComponentTransfer>
    <feMerge>
    <feMergeNode/>
    <feMergeNode in="SourceGraphic"/>
  </feMerge>
</filter>
<filter id="Filter_1">
    <feFlood flood-color="rgb(255, 255, 255)" flood-opacity="1" result="floodOut" />
    <feComposite operator="atop" in="floodOut" in2="SourceGraphic" result="compOut" />
    <feBlend mode="normal" in="compOut" in2="SourceGraphic" />
</filter>

</defs>
<g filter="url(#Filter_0)">
<g filter="url(#Filter_1)">
<path fill-rule="evenodd"  fill="rgb(255, 255, 255)"
 d="M3.37,43.216 C5.529,23.628 14.751,17.764 17.118,17.514 C19.486,17.265 21.729,16.391 26.90,20.758 C30.452,25.125 35.278,29.620 36.898,31.616 C38.518,33.612 39.424,38.974 37.804,40.970 C36.184,42.965 30.950,47.583 29.206,49.329 C27.461,51.75 27.587,53.197 28.209,54.445 C30.579,59.190 45.685,74.469 50.374,76.887 C51.612,77.526 53.730,77.677 55.495,75.952 C57.261,74.226 61.935,69.42 63.948,67.444 C65.960,65.847 71.304,66.818 73.278,68.464 C75.253,70.109 79.683,74.996 83.992,79.416 C88.301,83.834 87.400,86.69 87.123,88.437 C86.846,90.804 80.878,99.965 61.284,102.224 C37.214,104.998 0.11,67.181 3.37,43.216 L3.37,43.216 ZM75.87,59.881 C70.716,59.881 66.564,58.941 62.821,57.255 C62.429,57.78 62.43,56.893 61.660,56.700 C60.822,56.278 58.496,58.422 55.366,59.278 C51.560,60.317 46.861,60.110 45.977,59.403 C45.135,58.730 48.686,56.574 50.914,54.84 C52.449,52.369 52.996,50.135 52.509,49.575 C52.287,49.319 52.67,49.56 51.853,48.791 C47.681,43.645 45.180,37.83 45.180,29.937 C45.180,13.400 58.570,0.5 75.87,0.5 C91.605,0.5 104.994,13.400 104.994,29.937 C104.994,46.474 91.605,59.881 75.87,59.881 L75.87,59.881 ZM71.598,39.357 L71.598,47.560 C71.598,47.695 71.713,47.810 71.847,47.810 L78.327,47.810 C78.465,47.810 78.576,47.698 78.576,47.560 L78.576,39.295 C78.576,38.21 80.459,37.76 81.491,37.673 L88.586,41.774 C88.703,41.841 88.859,41.800 88.927,41.683 L92.167,36.63 C92.236,35.944 92.195,35.792 92.75,35.723 L84.926,31.590 C83.825,30.954 83.945,28.850 84.978,28.253 L92.74,24.151 C92.191,24.84 92.232,23.927 92.165,23.811 L88.925,18.192 C88.857,18.72 88.705,18.31 88.585,18.100 L81.436,22.233 C80.220,22.936 78.576,21.434 78.576,20.335 L78.576,12.314 C78.576,12.185 78.457,12.65 78.327,12.65 L71.847,12.65 C71.714,12.65 71.598,12.181 71.598,12.314 L71.598,20.397 C71.598,21.673 69.559,22.707 68.527,22.110 L61.588,18.101 C61.476,18.36 61.313,18.79 61.248,18.192 L58.9,23.811 C57.941,23.926 57.984,24.84 58.99,24.151 L65.91,28.193 C66.195,28.831 66.67,31.117 65.36,31.713 L58.98,35.723 C57.986,35.788 57.942,35.951 58.7,36.64 L61.247,41.683 C61.314,41.799 61.471,41.841 61.587,41.774 L68.579,37.732 C69.582,37.153 71.598,38.40 71.598,39.357 L71.598,39.357 ZM81.567,41.175 L81.567,47.560 C81.567,49.341 80.109,50.804 78.327,50.804 L71.847,50.804 C70.63,50.804 68.607,49.347 68.607,47.560 L68.607,41.174 L63.83,44.367 C61.538,45.261 59.549,44.727 58.657,43.180 L55.417,37.562 C54.527,36.19 55.62,34.21 56.603,33.131 L62.127,29.937 L56.604,26.744 C55.60,25.851 54.526,23.859 55.418,22.313 L58.658,16.694 C59.548,15.152 61.543,14.616 63.84,15.507 L68.607,18.700 L68.607,12.314 C68.607,10.529 70.64,9.71 71.847,9.71 L78.327,9.71 C80.107,9.71 81.567,10.533 81.567,12.314 L81.567,18.699 L87.90,15.507 C88.630,14.617 90.625,15.150 91.516,16.694 L94.755,22.314 C95.648,23.861 95.116,25.851 93.570,26.744 L88.47,29.937 L93.571,33.131 C95.111,34.20 95.647,36.17 94.756,37.562 L91.516,43.180 C90.624,44.728 88.637,45.261 87.91,44.367 L81.567,41.175 L81.567,41.175 ZM17.447,24.369 C18.861,23.8 20.929,25.160 19.515,26.521 C12.226,33.661 9.582,44.699 12.89,54.510 C12.588,56.410 9.703,57.170 9.204,55.270 C6.460,44.509 9.370,32.146 17.447,24.369 L17.447,24.369 Z"/>
</g></g>
</svg>