<svg 
 xmlns="http://www.w3.org/2000/svg"
 xmlns:xlink="http://www.w3.org/1999/xlink"
 width="116px" height="133px">
<defs>
<filter filterUnits="userSpaceOnUse" id="Filter_0" x="0px" y="0px" width="116px" height="133px"  >
    <feOffset in="SourceAlpha" dx="0" dy="3" />
    <feGaussianBlur result="blurOut" stdDeviation="1.732" />
    <feFlood flood-color="rgb(0, 0, 0)" result="floodOut" />
    <feComposite operator="atop" in="floodOut" in2="blurOut" />
    <feComponentTransfer><feFuncA type="linear" slope="0.09"/></feComponentTransfer>
    <feMerge>
    <feMergeNode/>
    <feMergeNode in="SourceGraphic"/>
  </feMerge>
</filter>
<filter id="Filter_1">
    <feFlood flood-color="rgb(255, 255, 255)" flood-opacity="1" result="floodOut" />
    <feComposite operator="atop" in="floodOut" in2="SourceGraphic" result="compOut" />
    <feBlend mode="normal" in="compOut" in2="SourceGraphic" />
</filter>

</defs>
<g filter="url(#Filter_0)">
<g filter="url(#Filter_1)">
<path fill-rule="evenodd"  fill="rgb(255, 255, 255)"
 d="M31.359,119.730 C32.649,120.877 33.457,122.517 33.457,124.337 C33.457,125.451 33.233,126.995 31.748,126.994 L31.748,126.996 C25.86,126.996 18.436,126.996 11.775,126.996 C11.9,126.996 10.372,126.466 10.239,125.770 C10.124,125.300 10.65,124.819 10.65,124.337 C10.65,122.614 10.788,121.54 11.960,119.918 C10.393,119.10 9.414,117.372 9.414,115.608 L9.414,78.702 C5.81,77.53 1.999,72.989 1.999,68.265 L1.999,44.509 C1.999,37.441 7.472,31.543 14.558,30.515 C15.192,28.449 15.598,26.316 15.753,24.164 C12.843,22.347 10.910,19.201 10.910,15.641 L10.910,6.226 C10.910,2.794 13.834,0.8 17.415,0.8 L25.610,0.8 C29.191,0.8 32.115,2.794 32.115,6.226 L32.115,15.641 C32.115,19.201 30.182,22.348 27.271,24.164 C27.428,26.329 27.837,28.474 28.477,30.553 C33.272,31.319 37.316,34.283 39.434,38.318 C41.530,34.220 45.633,31.220 50.498,30.515 C51.131,28.449 51.537,26.316 51.693,24.164 C48.782,22.347 46.850,19.201 46.850,15.641 L46.850,6.226 C46.850,2.794 49.774,0.8 53.354,0.8 L61.549,0.8 C65.130,0.8 68.54,2.794 68.54,6.226 L68.54,15.641 C68.54,19.201 66.120,22.348 63.210,24.164 C63.367,26.329 63.777,28.474 64.417,30.553 C69.247,31.325 73.313,34.327 75.419,38.407 C77.501,34.264 81.628,31.226 86.527,30.515 C87.161,28.449 87.566,26.316 87.722,24.164 C84.813,22.347 82.879,19.201 82.879,15.641 L82.879,6.226 C82.879,2.794 85.804,0.8 89.383,0.8 L97.579,0.8 C101.159,0.8 104.83,2.794 104.83,6.226 L104.83,15.641 C104.83,19.201 102.151,22.348 99.240,24.164 C99.397,26.329 99.807,28.474 100.447,30.553 C107.543,31.688 112.995,37.635 112.995,44.748 L112.995,68.265 C112.995,72.989 109.912,77.52 105.579,78.702 L105.579,115.608 C105.579,117.256 104.728,118.788 103.328,119.730 C104.618,120.877 105.426,122.517 105.426,124.337 C105.426,125.451 105.202,126.995 103.716,126.994 L103.716,126.996 C97.55,126.996 90.405,126.996 83.743,126.996 C82.978,126.996 82.341,126.466 82.208,125.770 C82.92,125.300 82.33,124.819 82.33,124.337 C82.33,122.614 82.758,121.54 83.929,119.918 C82.361,119.10 81.383,117.372 81.383,115.608 L81.383,78.702 C78.872,77.746 76.781,75.979 75.466,73.743 C74.152,75.979 72.61,77.746 69.550,78.702 L69.550,115.608 C69.550,117.256 68.699,118.788 67.298,119.730 C68.588,120.877 69.397,122.517 69.397,124.337 C69.397,125.451 69.172,126.995 67.687,126.994 L67.687,126.996 C61.25,126.996 54.375,126.996 47.714,126.996 C46.947,126.996 46.312,126.466 46.178,125.770 C46.63,125.300 46.4,124.819 46.4,124.337 C46.4,122.614 46.727,121.54 47.900,119.918 C46.332,119.10 45.353,117.372 45.353,115.608 L45.353,78.702 C42.870,77.758 40.799,76.20 39.482,73.819 C38.165,76.19 36.93,77.757 33.611,78.702 L33.611,115.608 C33.611,117.256 32.760,118.788 31.359,119.730 L31.359,119.730 ZM86.1,7.847 C88.24,6.455 89.649,6.334 91.933,7.123 C94.723,8.87 97.971,9.122 100.962,9.191 L100.962,6.226 C100.962,4.445 99.437,2.984 97.579,2.984 L89.383,2.984 C87.526,2.984 86.1,4.445 86.1,6.226 L86.1,7.847 L86.1,7.847 ZM100.962,12.163 C97.430,12.105 93.609,10.869 90.314,9.732 C88.315,9.42 87.146,10.989 86.1,11.990 L86.1,15.641 C86.1,19.582 89.370,22.811 93.482,22.811 L93.482,22.811 C97.592,22.811 100.962,19.582 100.962,15.641 L100.962,12.163 L100.962,12.163 ZM90.729,25.454 C90.548,27.104 90.232,28.745 89.790,30.356 L97.172,30.356 C96.730,28.745 96.414,27.104 96.233,25.454 C94.439,25.919 92.523,25.919 90.729,25.454 L90.729,25.454 ZM81.383,75.383 C81.383,65.217 81.383,55.53 81.383,44.888 C81.383,42.919 84.505,42.919 84.505,44.888 L84.505,67.205 L102.457,67.205 L102.457,44.888 C102.457,42.919 105.579,42.919 105.579,44.888 C105.579,55.53 105.579,65.217 105.579,75.383 C108.140,73.953 109.872,71.293 109.872,68.265 L109.872,44.748 C109.872,38.481 104.519,33.349 97.981,33.349 L96.374,33.349 L97.823,51.881 C97.853,52.255 97.771,52.644 97.570,52.959 L94.398,57.950 C93.943,58.697 93.54,58.718 92.580,57.977 L89.393,52.959 C89.206,52.667 89.107,52.285 89.139,51.881 L90.588,33.349 L88.733,33.349 C82.332,33.349 77.90,38.373 77.90,44.509 L77.90,68.265 C77.90,71.293 78.822,73.953 81.383,75.383 L81.383,75.383 ZM91.920,117.646 L91.920,77.437 C91.920,75.469 95.42,75.469 95.42,77.437 L95.42,117.646 L100.330,117.646 C100.918,117.646 101.450,117.419 101.831,117.53 C102.235,116.666 102.457,116.154 102.457,115.608 L102.457,70.198 L84.505,70.198 L84.505,115.608 C84.505,116.724 85.466,117.646 86.632,117.646 L91.920,117.646 L91.920,117.646 ZM85.174,124.3 L92.10,124.3 C91.599,120.98 85.585,120.98 85.174,124.3 L85.174,124.3 ZM95.450,124.3 L102.287,124.3 C101.875,120.98 95.861,120.98 95.450,124.3 L95.450,124.3 ZM49.971,7.847 C51.995,6.455 53.620,6.334 55.903,7.123 C58.694,8.87 61.941,9.122 64.931,9.191 L64.931,6.226 C64.931,4.445 63.407,2.984 61.549,2.984 L53.354,2.984 C51.496,2.984 49.971,4.445 49.971,6.226 L49.971,7.847 L49.971,7.847 ZM64.931,12.163 C61.400,12.105 57.578,10.869 54.284,9.732 C52.286,9.42 51.117,10.989 49.971,11.990 L49.971,15.641 C49.971,19.582 53.340,22.811 57.451,22.811 L57.451,22.811 C61.563,22.811 64.931,19.582 64.931,15.641 L64.931,12.163 L64.931,12.163 ZM54.699,25.454 C54.518,27.104 54.203,28.745 53.761,30.356 L61.141,30.356 C60.700,28.745 60.385,27.104 60.204,25.454 C58.409,25.919 56.493,25.919 54.699,25.454 L54.699,25.454 ZM45.353,75.383 C45.353,65.217 45.353,55.53 45.353,44.888 C45.353,42.919 48.475,42.919 48.475,44.888 L48.475,67.205 L66.428,67.205 L66.428,44.888 C66.428,42.919 69.550,42.919 69.550,44.888 C69.550,55.53 69.550,65.217 69.550,75.383 C72.110,73.953 73.843,71.293 73.843,68.265 L73.843,44.748 C73.843,38.481 68.489,33.349 61.952,33.349 L60.345,33.349 L61.794,51.881 C61.822,52.255 61.741,52.644 61.540,52.959 L58.367,57.950 C57.913,58.697 57.24,58.718 56.551,57.977 L53.363,52.959 C53.177,52.667 53.77,52.285 53.108,51.881 L54.559,33.349 L52.702,33.349 C46.302,33.349 41.60,38.373 41.60,44.509 L41.60,68.265 C41.60,71.293 42.793,73.953 45.353,75.383 L45.353,75.383 ZM55.890,117.646 L55.890,77.437 C55.890,75.469 59.13,75.469 59.13,77.437 L59.13,117.646 L64.301,117.646 C64.888,117.646 65.420,117.419 65.802,117.53 C66.204,116.666 66.428,116.154 66.428,115.608 L66.428,70.198 L48.475,70.198 L48.475,115.608 C48.475,116.724 49.437,117.646 50.601,117.646 L55.890,117.646 L55.890,117.646 ZM49.143,124.3 L55.980,124.3 C55.569,120.98 49.554,120.98 49.143,124.3 L49.143,124.3 ZM59.421,124.3 L66.256,124.3 C65.846,120.98 59.832,120.98 59.421,124.3 L59.421,124.3 ZM14.32,7.847 C16.56,6.455 17.681,6.334 19.964,7.123 C22.755,8.87 26.2,9.122 28.992,9.191 L28.992,6.226 C28.992,4.445 27.468,2.984 25.610,2.984 L17.415,2.984 C15.557,2.984 14.32,4.445 14.32,6.226 L14.32,7.847 L14.32,7.847 ZM28.992,12.163 C25.461,12.105 21.639,10.869 18.345,9.732 C16.346,9.42 15.178,10.989 14.32,11.990 L14.32,15.641 C14.32,19.582 17.401,22.811 21.512,22.811 L21.513,22.811 C25.624,22.811 28.992,19.582 28.992,15.641 L28.992,12.163 L28.992,12.163 ZM18.760,25.454 C18.578,27.104 18.263,28.745 17.822,30.356 L25.202,30.356 C24.761,28.745 24.446,27.104 24.265,25.454 C22.470,25.919 20.554,25.919 18.760,25.454 L18.760,25.454 ZM9.414,75.383 C9.414,65.217 9.414,55.53 9.414,44.888 C9.414,42.919 12.536,42.919 12.536,44.888 L12.536,67.205 L30.488,67.205 L30.488,44.888 C30.488,42.919 33.611,42.919 33.611,44.888 C33.611,55.53 33.611,65.217 33.611,75.383 C36.172,73.953 37.904,71.293 37.904,68.265 L37.904,44.748 C37.904,38.481 32.550,33.349 26.12,33.349 L24.406,33.349 L25.855,51.881 C25.884,52.255 25.802,52.644 25.601,52.959 L22.429,57.950 C21.974,58.697 21.84,58.718 20.612,57.977 L17.424,52.959 C17.238,52.667 17.138,52.285 17.169,51.881 L18.619,33.349 L16.764,33.349 C10.363,33.349 5.121,38.373 5.121,44.509 L5.121,68.265 C5.121,71.293 6.853,73.953 9.414,75.383 L9.414,75.383 ZM19.951,117.646 L19.951,77.437 C19.951,75.469 23.74,75.469 23.74,77.437 L23.74,117.646 L28.362,117.646 C28.949,117.646 29.480,117.419 29.863,117.53 C30.265,116.666 30.488,116.154 30.488,115.608 L30.488,70.198 L12.536,70.198 L12.536,115.608 C12.536,116.724 13.498,117.646 14.662,117.646 L19.951,117.646 L19.951,117.646 ZM13.204,124.3 L20.40,124.3 C19.629,120.98 13.616,120.98 13.204,124.3 L13.204,124.3 ZM23.482,124.3 L30.318,124.3 C29.906,120.98 23.893,120.98 23.482,124.3 L23.482,124.3 Z"/>
</g></g>
</svg>