<svg 
 xmlns="http://www.w3.org/2000/svg"
 xmlns:xlink="http://www.w3.org/1999/xlink"
 width="143px" height="134px">
<defs>
<filter filterUnits="userSpaceOnUse" id="Filter_0" x="0px" y="0px" width="143px" height="134px"  >
    <feOffset in="SourceAlpha" dx="0" dy="3" />
    <feGaussianBlur result="blurOut" stdDeviation="1.732" />
    <feFlood flood-color="rgb(0, 0, 0)" result="floodOut" />
    <feComposite operator="atop" in="floodOut" in2="blurOut" />
    <feComponentTransfer><feFuncA type="linear" slope="0.09"/></feComponentTransfer>
    <feMerge>
    <feMergeNode/>
    <feMergeNode in="SourceGraphic"/>
  </feMerge>
</filter>
<filter id="Filter_1">
    <feFlood flood-color="rgb(255, 255, 255)" flood-opacity="1" result="floodOut" />
    <feComposite operator="atop" in="floodOut" in2="SourceGraphic" result="compOut" />
    <feBlend mode="normal" in="compOut" in2="SourceGraphic" />
</filter>

</defs>
<g filter="url(#Filter_0)">
<g filter="url(#Filter_1)">
<path fill-rule="evenodd"  fill="rgb(255, 255, 255)"
 d="M64.175,7.394 C72.204,4.646 75.15,5.32 79.768,7.754 C84.520,10.476 86.241,11.257 86.241,11.257 C86.241,11.257 89.178,6.329 91.32,7.829 C92.885,9.329 89.522,12.891 89.522,12.891 C89.522,12.891 91.684,14.641 97.146,15.485 C102.607,16.329 107.435,18.142 112.686,21.320 C117.939,24.498 125.268,26.446 130.773,28.244 C136.277,30.42 139.999,32.645 139.877,35.816 C139.337,49.787 137.703,54.113 128.863,64.968 C126.856,67.431 122.336,66.941 117.10,64.672 C111.683,62.404 104.885,59.49 98.835,57.983 C92.785,56.918 87.957,55.105 83.295,52.148 C78.630,49.191 75.848,49.85 75.848,49.85 C75.848,49.85 76.18,53.972 73.633,53.881 C71.248,53.790 72.301,48.155 72.301,48.155 C72.301,48.155 70.490,47.610 65.117,46.530 C64.504,46.407 64.496,45.190 63.316,44.650 C62.362,44.214 60.174,44.532 59.933,43.787 C59.419,42.197 61.890,39.792 61.153,39.331 C59.317,38.185 58.188,39.734 55.602,38.567 C54.907,38.253 53.600,37.312 53.161,36.547 C48.518,28.457 55.448,10.382 64.175,7.394 L64.175,7.394 ZM25.852,39.652 C28.491,39.630 28.525,43.629 25.887,43.652 L9.159,43.805 C7.438,43.820 6.526,41.818 7.596,40.530 L15.945,29.725 L3.314,17.179 C2.0,15.873 3.24,13.661 4.842,13.760 L4.842,13.757 L23.718,14.769 L24.838,1.908 C24.933,0.807 25.907,0.9 27.12,0.87 C27.572,0.135 28.58,0.408 28.389,0.808 L37.325,10.265 C39.132,12.177 36.216,14.918 34.407,13.5 L28.453,6.704 L27.562,16.943 C27.519,18.68 26.572,18.940 25.441,18.878 L9.879,18.44 L20.31,28.128 L20.28,28.131 C20.732,28.830 20.824,29.958 20.203,30.764 L13.247,39.768 L25.852,39.652 L25.852,39.652 ZM27.612,53.489 C25.182,61.598 25.682,64.383 28.602,69.6 C31.522,73.630 32.373,75.314 32.373,75.314 C32.373,75.314 27.554,78.438 29.131,80.222 C30.710,82.8 34.144,78.515 34.144,78.515 C34.144,78.515 35.985,80.598 37.51,86.4 C38.118,91.410 40.130,96.146 43.526,101.248 C46.924,106.351 49.172,113.574 51.197,118.984 C53.221,124.393 55.981,127.996 59.153,127.746 C73.136,126.645 77.405,124.843 87.930,115.599 C90.317,113.502 89.643,109.20 87.155,103.806 C84.666,98.591 81.28,91.956 79.717,85.973 C78.405,79.990 76.394,75.254 73.242,70.728 C70.90,66.202 69.870,63.435 69.870,63.435 C69.870,63.435 74.777,63.407 74.589,61.36 C74.402,58.663 68.796,59.940 68.796,59.940 C68.796,59.940 68.176,58.157 66.877,52.850 C66.729,52.244 65.509,52.284 64.920,51.132 C64.380,50.70 62.190,50.453 60.210,49.681 C58.963,49.195 55.285,48.75 54.8,47.221 C52.858,46.454 54.115,45.961 52.871,45.316 C51.631,44.675 51.497,43.425 51.213,42.330 C50.957,41.339 49.812,41.793 48.391,41.609 C47.933,41.550 48.134,40.242 47.427,40.343 C39.72,41.544 29.493,47.217 27.612,53.489 L27.612,53.489 ZM62.836,120.657 C59.931,121.779 59.319,123.47 54.992,113.26 C53.370,109.272 53.513,109.236 57.43,107.810 C64.473,104.807 67.703,103.444 75.37,100.214 C78.521,98.679 78.646,98.604 80.222,102.377 C84.430,112.448 83.89,112.4 80.260,113.303 C78.449,114.134 64.695,119.939 62.836,120.657 L62.836,120.657 ZM44.274,83.228 C40.662,84.752 41.262,85.454 40.154,82.108 C39.928,81.422 38.425,76.572 37.644,73.628 C36.835,70.581 36.996,71.363 40.288,69.825 C47.135,66.626 52.145,64.506 59.335,61.786 C62.733,60.500 62.282,59.841 63.913,62.539 C65.491,65.148 67.940,69.599 68.276,70.239 C69.915,73.360 69.827,72.442 66.215,73.967 C58.901,77.53 51.587,80.141 44.274,83.228 L44.274,83.228 ZM28.840,54.128 C28.408,56.490 28.727,57.240 30.447,56.786 C32.167,56.333 32.303,55.527 32.507,54.79 C32.711,52.630 33.886,50.568 33.648,49.851 C33.5,47.902 29.132,52.530 28.840,54.128 L28.840,54.128 ZM132.920,39.770 C133.927,36.831 135.173,36.170 124.955,32.265 C121.126,30.802 121.95,30.944 119.808,34.518 C117.99,42.41 115.863,45.312 112.921,52.747 C111.523,56.279 111.452,56.406 115.298,57.824 C125.562,61.609 125.62,60.292 126.250,57.422 C127.10,55.584 132.275,41.651 132.920,39.770 L132.920,39.770 ZM94.654,22.791 C96.37,19.132 96.765,19.701 93.366,18.733 C92.670,18.535 87.748,17.233 84.765,16.574 C81.679,15.892 82.469,16.20 81.60,19.361 C78.129,26.310 76.206,31.386 73.770,38.657 C72.618,42.95 71.939,41.671 74.711,43.187 C77.388,44.654 81.948,46.913 82.603,47.222 C85.798,48.729 84.873,48.678 86.256,45.19 C89.56,37.609 91.855,30.200 94.654,22.791 L94.654,22.791 ZM54.471,36.101 C55.889,38.41 56.654,38.327 57.511,36.773 C58.367,35.218 57.875,34.564 56.963,33.418 C56.51,32.272 55.363,30.3 54.679,29.680 C52.819,28.800 53.511,34.788 54.471,36.101 L54.471,36.101 ZM64.865,8.591 C67.214,8.66 67.979,8.353 67.594,10.85 C67.209,11.816 66.406,11.984 64.963,12.246 C63.519,12.508 61.499,13.760 60.771,13.554 C58.791,12.992 63.274,8.946 64.865,8.591 L64.865,8.591 Z"/>
</g></g>
</svg>