<?xml version="1.0" encoding="UTF-8" standalone="no"?>
<svg
   width="34.556473"
   height="32.094002"
   version="1.1"
   id="svg4"
   sodipodi:docname="icon-advantages-3.svg"
   inkscape:version="1.1 (c68e22c387, 2021-05-23)"
   xmlns:inkscape="http://www.inkscape.org/namespaces/inkscape"
   xmlns:sodipodi="http://sodipodi.sourceforge.net/DTD/sodipodi-0.dtd"
   xmlns="http://www.w3.org/2000/svg"
   xmlns:svg="http://www.w3.org/2000/svg">
  <defs
     id="defs8" />
  <sodipodi:namedview
     id="namedview6"
     pagecolor="#ffffff"
     bordercolor="#666666"
     borderopacity="1.0"
     inkscape:pageshadow="2"
     inkscape:pageopacity="0.0"
     inkscape:pagecheckerboard="0"
     showgrid="false"
     fit-margin-top="0"
     fit-margin-left="0"
     fit-margin-right="0"
     fit-margin-bottom="0"
     inkscape:zoom="21.128205"
     inkscape:cx="17.322816"
     inkscape:cy="15.642597"
     inkscape:window-width="2560"
     inkscape:window-height="1009"
     inkscape:window-x="-8"
     inkscape:window-y="-8"
     inkscape:window-maximized="1"
     inkscape:current-layer="svg4" />
  <path
     fill-rule="evenodd"
     stroke-width="1px"
     stroke="#ffcb00"
     fill="#ffcb00"
     d="M 0.50047112,18.513 V 5.068 C 0.50047112,2.396 4.0684711,0.5 6.4054711,0.5 H 26.977471 c 2.6,0 4.621,1.62 5.463,3.851 0.253,0.509 0.048,1.127 -0.458,1.382 -0.147,0.074 -0.303,0.109 -0.457,0.109 L 7.6984711,5.846 c -1.278,0 -0.42,1.659 0,1.659 H 31.151471 c 1.594,0 2.905,1.032 2.905,2.637 v 18.526 c 0,2.427 -1.309,2.926 -2.905,2.926 H 3.4054711 c -1.598,0 -2.90499998,-0.499 -2.90499998,-2.926 v -0.845 c -0.013,-0.429 0.24,-0.838 0.65999998,-1 0.691,-0.266 1.417,0.27 1.393,1 l 0.001,0.845 c 0,0.41 0.401,0.857 0.851,0.857 H 31.151471 c 0.467,0 0.85,-0.385 0.85,-0.857 V 10.142 c 0,-0.474 -0.379,-0.857 -0.85,-0.857 H 7.6984711 c -3.989,0 -4,-5.508 0,-5.508 H 29.616471 c -0.711,-0.78 -1.566,-1.208 -2.639,-1.208 H 6.4054711 c -1.183,0 -3.851,1.112 -3.851,2.499 v 13.445 c 0,0.416 0.244,0.809 -0.66,0.966 -0.677,0.261 -1.39499998,0.156 -1.39399998,-0.966 z M 24.280471,20.361 c -0.501,-1.32 0.161,-2.811 1.472,-3.316 1.31,-0.505 2.791,0.38 3.292,1.482 0.501,1.319 -0.162,2.81 -1.471,3.315 -1.313,0.506 -2.791,-0.161 -3.293,-1.481 z"
     id="path2" />
</svg>
