<?xml version="1.0" encoding="UTF-8" standalone="no"?>
<svg
   width="45.797001"
   height="47.379486"
   version="1.1"
   id="svg43"
   sodipodi:docname="icon-advantages-2-1.svg"
   inkscape:version="1.1 (c68e22c387, 2021-05-23)"
   xmlns:inkscape="http://www.inkscape.org/namespaces/inkscape"
   xmlns:sodipodi="http://sodipodi.sourceforge.net/DTD/sodipodi-0.dtd"
   xmlns="http://www.w3.org/2000/svg"
   xmlns:svg="http://www.w3.org/2000/svg">
  <defs
     id="defs47" />
  <sodipodi:namedview
     id="namedview45"
     pagecolor="#ffffff"
     bordercolor="#666666"
     borderopacity="1.0"
     inkscape:pageshadow="2"
     inkscape:pageopacity="0.0"
     inkscape:pagecheckerboard="0"
     showgrid="false"
     height="41px"
     fit-margin-top="0"
     fit-margin-left="0"
     fit-margin-right="0"
     fit-margin-bottom="0"
     inkscape:zoom="4"
     inkscape:cx="-68.5"
     inkscape:cy="-29.375"
     inkscape:window-width="2560"
     inkscape:window-height="1009"
     inkscape:window-x="-8"
     inkscape:window-y="-8"
     inkscape:window-maximized="1"
     inkscape:current-layer="svg43" />
  <path
     fill-rule="evenodd"
     fill="#ffcb00"
     d="m 44.75,23.833 v 0.365 c 0,0.93 -0.749,1.691 -1.665,1.691 -1.094,0 -1.664,-0.871 -1.664,-1.009 h -6.247 v -0.682 c 0,0.93 -0.749,1.691 -1.664,1.691 -0.916,0 -1.26,-0.761 -1.26,-1.691 v -0.365 c -1.02,-0.28 -1.452,-0.603 -1.452,-1.636 0,-0.424 -10e-4,-4.556 0,-4.556 l 2.678,-5.751 9.661,0.26 2.66,5.491 v 4.556 c 0,1.033 -0.431,1.356 -1.047,1.636 z M 32.364,20.35 c 0,0.737 0.588,1.334 1.314,1.334 0.725,0 1.313,-0.597 1.313,-1.334 0,-0.737 -0.588,-1.335 -1.313,-1.335 -0.726,0 -1.314,0.598 -1.314,1.335 z m 9.641,-6.52 H 34.59 l -1.841,3.811 H 44.26 Z m 0.912,5.185 c -0.725,0 -1.313,0.598 -1.313,1.335 0,0.737 0.588,1.334 1.313,1.334 0.726,0 1.314,-0.597 1.314,-1.334 0,-0.737 -0.588,-1.335 -1.314,-1.335 z M 38.303,9.888 C 37.587,9.278 36.921,8.712 36.176,8.143 35.344,7.507 35.4,6.505 35.4,5.379 c 0,-1.923 0.972,-2.889 2.903,-2.889 1.931,0 3.497,0.966 3.497,2.889 0,1.117 -0.529,2.112 -1.349,2.748 -0.752,0.584 -1.42,1.136 -2.148,1.761 z m 0,-5.852 c -0.745,0 -1.348,0.601 -1.348,1.343 0,0.741 0.604,1.342 1.348,1.342 0.745,0 1.348,-0.601 1.348,-1.342 0,-0.742 -0.603,-1.343 -1.348,-1.343 z M 23.05,36.462 v 0.608 c 0,1.551 -1.15,2.819 -2.774,2.819 -1.824,0 -2.774,-1.451 -2.774,-3.168 H 7.091 v 0.349 c 0,1.551 -0.871,2.819 -2.775,2.819 -1.525,0 -2.774,-1.268 -2.774,-2.819 V 36.462 C 0.516,35.996 0,35.46 0,33.735 0,33.028 0.1,26.142 0,26.142 l 4.26,-9.586 16.102,0.044 4.433,9.542 10e-4,7.593 c 0,1.725 -0.72,2.261 -1.746,2.727 z M 2.408,30.656 c 0,1.229 0.979,2.225 2.189,2.225 1.703,0 2.188,-0.996 2.188,-2.225 0,-1.228 -0.485,-2.223 -2.188,-2.223 -1.21,0 -2.189,0.995 -2.189,2.223 z M 18.476,19.79 H 6.116 l -3.067,6.352 h 18.494 z m 1.52,8.643 c -1.209,0 -1.496,0.995 -1.496,2.223 0,1.229 0.287,2.225 1.496,2.225 1.209,0 2.188,-0.996 2.188,-2.225 0,-1.228 -0.979,-2.223 -2.188,-2.223 z M 12.306,13.22 C 11.113,12.204 10.002,11.26 8.76,10.311 7.374,9.252 6.477,7.581 6.477,5.705 6.477,2.5 9.087,0 12.306,0 c 3.218,0 5.828,2.5 5.828,5.705 0,1.862 -0.882,3.52 -1.484,4.58 -2.018,0.973 -3.131,1.894 -4.344,2.935 z m 0,-9.752 c -1.242,0 -2.247,1.001 -2.247,2.237 0,1.695 1.006,2.705 2.247,2.705 1.241,0 2.246,-1.01 2.246,-2.705 0,-1.236 -1.005,-2.237 -2.246,-2.237 z"
     id="path41" />
  <path
     fill-rule="evenodd"
     stroke="#ffcb00"
     stroke-width="2px"
     stroke-dasharray="1, 4"
     stroke-linecap="round"
     stroke-linejoin="miter"
     fill-opacity="0"
     fill="#ffcb00"
     d="m 9.6390966,39.715148 c 0,0 7.3210144,10.682 20.0000144,5 5.252,-2.301 6.578,-13.079 1,-16 -8.509,-4.687 1,-11 1,-11"
     id="path129" />
</svg>
