<svg 
 xmlns="http://www.w3.org/2000/svg"
 xmlns:xlink="http://www.w3.org/1999/xlink"
 width="42px" height="39px">
<path fill-rule="evenodd"  stroke-width="1px" stroke="rgb(255, 203, 0)" fill="rgb(255, 203, 0)"
 d="M4.202,22.328 L4.202,8.883 C4.202,6.211 7.770,4.315 10.107,4.315 L30.679,4.315 C33.279,4.315 35.30,5.935 36.142,8.166 C36.395,8.675 36.190,9.293 35.684,9.548 C35.537,9.622 35.381,9.657 35.227,9.657 L11.4,9.661 C10.122,9.661 10.98,11.32 11.4,11.32 L34.853,11.32 C36.447,11.32 37.758,12.352 37.758,13.957 L37.758,32.483 C37.758,34.91 36.449,35.409 34.853,35.409 L7.107,35.409 C5.509,35.409 4.202,34.91 4.202,32.483 L4.202,31.638 C4.189,31.209 4.442,30.800 4.862,30.638 C5.553,30.372 6.279,30.908 6.255,31.638 L6.256,32.483 C6.256,32.893 6.657,33.340 7.107,33.340 L34.853,33.340 C35.320,33.340 35.703,32.955 35.703,32.483 L35.703,13.957 C35.703,13.483 35.324,13.100 34.853,13.100 L11.4,13.100 C7.411,13.100 7.400,7.592 11.4,7.592 L33.318,7.592 C32.607,6.812 31.752,6.384 30.679,6.384 L10.107,6.384 C8.924,6.384 6.256,7.496 6.256,8.883 L6.256,22.328 C6.256,22.744 6.5,23.137 5.596,23.294 C4.919,23.555 4.201,23.45 4.202,22.328 L4.202,22.328 ZM27.982,24.176 C27.481,22.856 28.143,21.365 29.454,20.860 C30.764,20.355 32.245,21.24 32.746,22.342 C33.247,23.661 32.584,25.152 31.275,25.657 C29.962,26.163 28.484,25.496 27.982,24.176 L27.982,24.176 Z"/>
</svg>