<svg 
 xmlns="http://www.w3.org/2000/svg"
 xmlns:xlink="http://www.w3.org/1999/xlink"
 width="35px" height="40px">
<path fill-rule="evenodd"  fill="rgb(255, 203, 0)"
 d="M15.86,27.934 L15.86,14.638 L19.913,14.638 L19.913,23.137 L23.807,23.137 L23.807,27.934 L15.86,27.934 L15.86,27.934 ZM12.776,4.790 L12.776,0.6 L22.223,0.6 L22.223,4.790 L19.913,4.790 L19.913,5.396 C28.548,6.580 34.999,13.942 34.999,22.619 C34.999,32.221 27.164,40.7 17.499,40.7 C7.835,40.7 0.0,32.221 0.0,22.619 C0.0,13.942 6.452,6.580 15.86,5.396 L15.86,4.790 L12.776,4.790 L12.776,4.790 ZM17.499,35.211 C24.499,35.211 30.172,29.574 30.172,22.619 C30.172,15.665 24.499,10.28 17.499,10.28 C10.500,10.28 4.827,15.665 4.827,22.619 C4.827,29.574 10.500,35.211 17.499,35.211 L17.499,35.211 Z"/>
</svg>